<svg width="1512" height="770" viewBox="0 0 1512 770" fill="none" xmlns="http://www.w3.org/2000/svg">
<rect width="1512" height="770" fill="white"/>
<path d="M664.704 169.191V169.95C664.185 169.991 663.747 170.135 663.392 170.381C663.036 170.627 662.722 171.003 662.448 171.509C662.366 171.673 661.936 172.732 661.156 174.688L652.44 197.636H651.641L644.75 179.712L637.162 197.636H636.403L627.257 174.934C626.327 172.65 625.678 171.27 625.309 170.791C624.939 170.312 624.317 170.032 623.442 169.95V169.191H635.501V169.95C634.53 169.978 633.881 170.128 633.553 170.401C633.238 170.661 633.081 170.989 633.081 171.386C633.081 171.905 633.416 173.006 634.086 174.688L639.541 188.182L643.909 177.641L642.761 174.688C642.132 173.074 641.646 172.001 641.305 171.468C640.963 170.921 640.566 170.531 640.115 170.299C639.678 170.066 639.028 169.95 638.167 169.95V169.191H651.641V169.95C650.697 169.964 650.021 170.039 649.61 170.176C649.323 170.271 649.098 170.436 648.934 170.668C648.77 170.887 648.688 171.14 648.688 171.427C648.688 171.741 648.995 172.705 649.61 174.318L654.676 187.484L659.208 175.569C659.687 174.339 659.98 173.498 660.09 173.047C660.199 172.596 660.254 172.179 660.254 171.796C660.254 171.235 660.062 170.798 659.68 170.483C659.297 170.155 658.565 169.978 657.485 169.95V169.191H664.704ZM671.103 168.535C671.991 168.535 672.743 168.85 673.358 169.479C673.974 170.094 674.281 170.839 674.281 171.714C674.281 172.589 673.967 173.334 673.338 173.949C672.723 174.564 671.978 174.872 671.103 174.872C670.228 174.872 669.482 174.564 668.867 173.949C668.252 173.334 667.944 172.589 667.944 171.714C667.944 170.839 668.252 170.094 668.867 169.479C669.482 168.85 670.228 168.535 671.103 168.535ZM673.974 177.825V193.021C673.974 194.375 674.131 195.243 674.445 195.626C674.76 195.995 675.375 196.207 676.291 196.262V197H665.935V196.262C666.782 196.234 667.411 195.988 667.821 195.523C668.095 195.209 668.231 194.375 668.231 193.021V181.824C668.231 180.471 668.074 179.609 667.76 179.24C667.445 178.857 666.837 178.639 665.935 178.584V177.825H673.974ZM685.971 169.191V187.484L690.421 183.116C691.337 182.228 691.904 181.585 692.123 181.188C692.355 180.792 692.472 180.409 692.472 180.04C692.472 179.671 692.321 179.363 692.021 179.117C691.72 178.871 691.132 178.693 690.257 178.584V177.825H698.85V178.584C698.029 178.625 697.312 178.823 696.696 179.179C696.081 179.521 694.878 180.566 693.087 182.316L690.995 184.367L695.507 190.971C697.325 193.65 698.405 195.154 698.747 195.482C699.212 195.947 699.8 196.207 700.511 196.262V197H690.605V196.262C691.043 196.262 691.357 196.18 691.549 196.016C691.754 195.852 691.856 195.674 691.856 195.482C691.856 195.168 691.569 194.587 690.995 193.739L687.201 188.182L685.971 189.392V192.837C685.971 194.3 686.107 195.216 686.381 195.585C686.654 195.94 687.215 196.166 688.062 196.262V197H678.157V196.262C678.964 196.18 679.538 195.92 679.88 195.482C680.112 195.182 680.229 194.3 680.229 192.837V173.354C680.229 171.905 680.092 171.003 679.818 170.647C679.559 170.292 679.005 170.06 678.157 169.95V169.191H685.971ZM706.171 168.535C707.06 168.535 707.812 168.85 708.427 169.479C709.042 170.094 709.35 170.839 709.35 171.714C709.35 172.589 709.035 173.334 708.406 173.949C707.791 174.564 707.046 174.872 706.171 174.872C705.296 174.872 704.551 174.564 703.936 173.949C703.32 173.334 703.013 172.589 703.013 171.714C703.013 170.839 703.32 170.094 703.936 169.479C704.551 168.85 705.296 168.535 706.171 168.535ZM709.042 177.825V193.021C709.042 194.375 709.199 195.243 709.514 195.626C709.828 195.995 710.443 196.207 711.359 196.262V197H701.003V196.262C701.851 196.234 702.479 195.988 702.89 195.523C703.163 195.209 703.3 194.375 703.3 193.021V181.824C703.3 180.471 703.143 179.609 702.828 179.24C702.514 178.857 701.905 178.639 701.003 178.584V177.825H709.042ZM731.703 177.825V180.348C732.756 179.199 733.727 178.399 734.615 177.948C735.518 177.483 736.502 177.251 737.568 177.251C738.799 177.251 739.831 177.538 740.665 178.112C741.499 178.687 742.142 179.562 742.593 180.737C743.687 179.507 744.732 178.618 745.73 178.071C746.742 177.524 747.795 177.251 748.889 177.251C750.215 177.251 751.268 177.559 752.047 178.174C752.84 178.775 753.387 179.548 753.688 180.491C754.002 181.421 754.159 182.911 754.159 184.962V192.816C754.159 194.293 754.289 195.209 754.549 195.564C754.822 195.92 755.383 196.152 756.23 196.262V197H746.325V196.262C747.104 196.193 747.679 195.893 748.048 195.359C748.294 194.99 748.417 194.143 748.417 192.816V184.572C748.417 182.863 748.349 181.776 748.212 181.312C748.075 180.847 747.856 180.505 747.556 180.286C747.269 180.054 746.927 179.938 746.53 179.938C745.942 179.938 745.348 180.156 744.746 180.594C744.145 181.018 743.536 181.66 742.921 182.521V192.816C742.921 194.197 743.037 195.065 743.27 195.421C743.584 195.927 744.186 196.207 745.074 196.262V197H735.148V196.262C735.682 196.234 736.099 196.104 736.399 195.872C736.714 195.626 736.919 195.339 737.015 195.011C737.124 194.669 737.179 193.938 737.179 192.816V184.572C737.179 182.836 737.11 181.749 736.974 181.312C736.837 180.874 736.604 180.532 736.276 180.286C735.962 180.04 735.62 179.917 735.251 179.917C734.704 179.917 734.205 180.061 733.754 180.348C733.111 180.771 732.428 181.496 731.703 182.521V192.816C731.703 194.17 731.833 195.065 732.093 195.503C732.366 195.927 732.927 196.18 733.774 196.262V197H723.89V196.262C724.696 196.18 725.271 195.92 725.612 195.482C725.845 195.182 725.961 194.293 725.961 192.816V181.988C725.961 180.539 725.824 179.637 725.551 179.281C725.291 178.926 724.737 178.693 723.89 178.584V177.825H731.703ZM767.53 197.779L761.337 183.567C760.407 181.421 759.717 180.102 759.266 179.609C758.828 179.117 758.295 178.775 757.666 178.584V177.825H767.858V178.584C767.188 178.611 766.717 178.741 766.443 178.974C766.17 179.206 766.033 179.486 766.033 179.814C766.033 180.334 766.375 181.359 767.059 182.891L770.34 190.396L772.575 184.593C773.382 182.528 773.785 181.093 773.785 180.286C773.785 179.78 773.614 179.377 773.272 179.076C772.944 178.775 772.356 178.611 771.509 178.584V177.825H777.928V178.584C777.299 178.652 776.786 178.898 776.39 179.322C775.993 179.732 775.33 181.147 774.4 183.567L768.925 197.779C767.544 201.334 766.519 203.521 765.849 204.342C764.905 205.49 763.723 206.064 762.301 206.064C761.166 206.064 760.243 205.736 759.532 205.08C758.835 204.438 758.486 203.658 758.486 202.742C758.486 201.949 758.726 201.293 759.204 200.773C759.696 200.254 760.298 199.994 761.009 199.994C761.692 199.994 762.239 200.213 762.649 200.65C763.073 201.088 763.292 201.765 763.306 202.681C763.319 203.2 763.381 203.535 763.49 203.686C763.6 203.836 763.757 203.911 763.962 203.911C764.29 203.911 764.639 203.713 765.008 203.316C765.555 202.742 766.197 201.43 766.936 199.379L767.53 197.779ZM797.656 195.052V202.188C797.656 203.173 797.731 203.843 797.882 204.198C798.046 204.554 798.292 204.813 798.62 204.978C798.948 205.142 799.591 205.224 800.548 205.224V205.982H789.617V205.224C790.465 205.196 791.094 204.957 791.504 204.506C791.777 204.191 791.914 203.378 791.914 202.065V181.824C791.914 180.471 791.757 179.609 791.442 179.24C791.128 178.857 790.52 178.639 789.617 178.584V177.825H797.656V180.348C798.326 179.363 799.01 178.652 799.707 178.215C800.705 177.572 801.792 177.251 802.968 177.251C804.376 177.251 805.654 177.695 806.803 178.584C807.965 179.473 808.847 180.703 809.448 182.275C810.05 183.834 810.351 185.516 810.351 187.32C810.351 189.262 810.036 191.039 809.407 192.652C808.792 194.252 807.89 195.476 806.7 196.323C805.524 197.157 804.212 197.574 802.763 197.574C801.71 197.574 800.726 197.342 799.81 196.877C799.126 196.521 798.408 195.913 797.656 195.052ZM797.656 192.98C798.832 194.648 800.09 195.482 801.43 195.482C802.168 195.482 802.776 195.093 803.255 194.313C803.966 193.165 804.321 190.978 804.321 187.751C804.321 184.442 803.932 182.18 803.152 180.963C802.633 180.156 801.936 179.753 801.061 179.753C799.68 179.753 798.545 180.751 797.656 182.747V192.98ZM829.854 186.726H819.333C819.456 189.269 820.133 191.278 821.363 192.755C822.307 193.89 823.441 194.457 824.768 194.457C825.588 194.457 826.333 194.231 827.003 193.78C827.673 193.315 828.391 192.488 829.156 191.299L829.854 191.75C828.814 193.869 827.666 195.373 826.408 196.262C825.15 197.137 823.694 197.574 822.04 197.574C819.196 197.574 817.043 196.48 815.58 194.293C814.404 192.529 813.816 190.342 813.816 187.73C813.816 184.531 814.678 181.988 816.4 180.102C818.137 178.201 820.167 177.251 822.491 177.251C824.433 177.251 826.114 178.051 827.536 179.65C828.972 181.236 829.744 183.595 829.854 186.726ZM824.809 185.352C824.809 183.15 824.686 181.64 824.439 180.819C824.207 179.999 823.838 179.377 823.332 178.953C823.045 178.707 822.662 178.584 822.184 178.584C821.473 178.584 820.892 178.933 820.44 179.63C819.634 180.847 819.23 182.515 819.23 184.634V185.352H824.809ZM850.915 169.191V191.258C850.915 192.748 850.956 193.63 851.038 193.903C851.147 194.354 851.353 194.689 851.653 194.908C851.968 195.127 852.508 195.264 853.273 195.318V195.995L845.173 197.574V194.539C844.202 195.715 843.334 196.515 842.568 196.938C841.816 197.362 840.962 197.574 840.005 197.574C837.558 197.574 835.623 196.48 834.201 194.293C833.053 192.516 832.479 190.335 832.479 187.751C832.479 185.687 832.834 183.841 833.545 182.214C834.256 180.573 835.227 179.336 836.457 178.502C837.701 177.668 839.034 177.251 840.456 177.251C841.372 177.251 842.186 177.429 842.896 177.784C843.607 178.14 844.366 178.762 845.173 179.65V173.867C845.173 172.404 845.111 171.522 844.988 171.222C844.824 170.825 844.578 170.531 844.25 170.34C843.922 170.148 843.307 170.053 842.404 170.053V169.191H850.915ZM845.173 182.193C844.161 180.252 842.924 179.281 841.461 179.281C840.955 179.281 840.538 179.418 840.21 179.691C839.704 180.115 839.287 180.86 838.959 181.927C838.645 182.993 838.487 184.627 838.487 186.828C838.487 189.248 838.665 191.039 839.021 192.201C839.376 193.363 839.861 194.204 840.477 194.724C840.791 194.983 841.222 195.113 841.769 195.113C842.972 195.113 844.106 194.17 845.173 192.283V182.193ZM860.267 168.535C861.155 168.535 861.907 168.85 862.522 169.479C863.138 170.094 863.445 170.839 863.445 171.714C863.445 172.589 863.131 173.334 862.502 173.949C861.887 174.564 861.142 174.872 860.267 174.872C859.392 174.872 858.646 174.564 858.031 173.949C857.416 173.334 857.108 172.589 857.108 171.714C857.108 170.839 857.416 170.094 858.031 169.479C858.646 168.85 859.392 168.535 860.267 168.535ZM863.138 177.825V193.021C863.138 194.375 863.295 195.243 863.609 195.626C863.924 195.995 864.539 196.207 865.455 196.262V197H855.099V196.262C855.946 196.234 856.575 195.988 856.985 195.523C857.259 195.209 857.396 194.375 857.396 193.021V181.824C857.396 180.471 857.238 179.609 856.924 179.24C856.609 178.857 856.001 178.639 855.099 178.584V177.825H863.138ZM877.924 194.17C875.586 196.234 873.487 197.267 871.628 197.267C870.534 197.267 869.625 196.911 868.9 196.2C868.176 195.476 867.813 194.573 867.813 193.493C867.813 192.03 868.442 190.718 869.7 189.556C870.958 188.38 873.699 186.821 877.924 184.88V182.952C877.924 181.503 877.842 180.594 877.678 180.225C877.527 179.842 877.233 179.514 876.796 179.24C876.358 178.953 875.866 178.81 875.319 178.81C874.431 178.81 873.699 179.008 873.125 179.404C872.77 179.65 872.592 179.938 872.592 180.266C872.592 180.553 872.783 180.908 873.166 181.332C873.686 181.92 873.945 182.487 873.945 183.034C873.945 183.704 873.692 184.278 873.187 184.757C872.694 185.222 872.045 185.454 871.238 185.454C870.377 185.454 869.652 185.194 869.064 184.675C868.49 184.155 868.203 183.547 868.203 182.85C868.203 181.865 868.593 180.929 869.372 180.04C870.151 179.138 871.238 178.447 872.633 177.969C874.027 177.49 875.477 177.251 876.98 177.251C878.799 177.251 880.234 177.641 881.287 178.42C882.354 179.186 883.044 180.02 883.358 180.922C883.55 181.496 883.646 182.815 883.646 184.88V192.324C883.646 193.199 883.68 193.753 883.748 193.985C883.816 194.204 883.919 194.368 884.056 194.478C884.192 194.587 884.35 194.642 884.527 194.642C884.883 194.642 885.245 194.389 885.614 193.883L886.229 194.375C885.546 195.387 884.835 196.125 884.097 196.59C883.372 197.041 882.545 197.267 881.615 197.267C880.521 197.267 879.667 197.014 879.052 196.508C878.437 195.988 878.061 195.209 877.924 194.17ZM877.924 192.673V186.254C876.27 187.225 875.039 188.264 874.232 189.371C873.699 190.109 873.433 190.854 873.433 191.606C873.433 192.235 873.658 192.789 874.109 193.268C874.451 193.637 874.93 193.821 875.545 193.821C876.229 193.821 877.021 193.438 877.924 192.673Z" fill="#0000FF"/>
<path d="M525.901 285.434V289.376H525.515C525.285 288.466 525.031 287.815 524.752 287.421C524.473 287.02 524.09 286.701 523.603 286.465C523.33 286.336 522.854 286.271 522.174 286.271H521.089V297.508C521.089 298.253 521.128 298.718 521.207 298.904C521.293 299.09 521.454 299.255 521.69 299.398C521.934 299.535 522.263 299.603 522.679 299.603H523.162V300H515.535V299.603H516.019C516.441 299.603 516.781 299.527 517.039 299.377C517.225 299.277 517.372 299.105 517.479 298.861C517.558 298.689 517.598 298.238 517.598 297.508V286.271H516.545C515.564 286.271 514.851 286.479 514.407 286.895C513.784 287.475 513.39 288.302 513.226 289.376H512.817V285.434H525.901ZM532.175 289.655C533.049 289.655 533.861 289.881 534.613 290.332C535.365 290.783 535.935 291.424 536.321 292.255C536.715 293.086 536.912 293.995 536.912 294.983C536.912 296.409 536.55 297.601 535.827 298.561C534.953 299.721 533.747 300.301 532.207 300.301C530.696 300.301 529.532 299.771 528.716 298.711C527.899 297.651 527.491 296.423 527.491 295.026C527.491 293.587 527.907 292.334 528.737 291.267C529.575 290.192 530.721 289.655 532.175 289.655ZM532.218 290.418C531.853 290.418 531.537 290.558 531.272 290.837C531.015 291.109 530.843 291.653 530.757 292.47C530.678 293.279 530.639 294.407 530.639 295.854C530.639 296.62 530.689 297.336 530.789 298.002C530.868 298.51 531.036 298.897 531.294 299.162C531.552 299.427 531.845 299.56 532.175 299.56C532.497 299.56 532.766 299.47 532.98 299.291C533.26 299.048 533.446 298.707 533.539 298.271C533.682 297.59 533.754 296.215 533.754 294.146C533.754 292.928 533.686 292.094 533.55 291.643C533.414 291.184 533.213 290.851 532.948 290.644C532.762 290.493 532.519 290.418 532.218 290.418ZM543.336 290.16H547.461V290.558C547.081 290.586 546.831 290.654 546.709 290.762C546.594 290.869 546.537 291.023 546.537 291.224C546.537 291.446 546.598 291.714 546.72 292.029L548.825 297.69L550.941 293.082L550.383 291.632C550.211 291.202 549.985 290.905 549.706 290.74C549.549 290.64 549.255 290.579 548.825 290.558V290.16H553.509V290.558C552.993 290.579 552.628 290.672 552.413 290.837C552.27 290.951 552.198 291.134 552.198 291.385C552.198 291.528 552.227 291.675 552.284 291.825L554.519 297.476L556.592 292.029C556.735 291.643 556.807 291.335 556.807 291.105C556.807 290.969 556.735 290.848 556.592 290.74C556.456 290.633 556.184 290.572 555.775 290.558V290.16H558.88V290.558C558.257 290.651 557.799 291.073 557.505 291.825L554.218 300.301H553.777L551.317 294.017L548.449 300.301H548.052L544.894 292.029C544.686 291.507 544.482 291.156 544.281 290.977C544.081 290.79 543.766 290.651 543.336 290.558V290.16ZM562.672 284.725V291.922C563.467 291.048 564.097 290.49 564.562 290.246C565.028 289.995 565.493 289.87 565.959 289.87C566.518 289.87 566.997 290.024 567.398 290.332C567.799 290.64 568.097 291.123 568.29 291.782C568.426 292.241 568.494 293.078 568.494 294.296V297.776C568.494 298.399 568.544 298.826 568.645 299.055C568.716 299.227 568.838 299.363 569.01 299.463C569.182 299.563 569.497 299.613 569.955 299.613V300H565.121V299.613H565.347C565.805 299.613 566.124 299.545 566.303 299.409C566.482 299.266 566.607 299.058 566.679 298.786C566.7 298.672 566.711 298.335 566.711 297.776V294.296C566.711 293.222 566.654 292.516 566.539 292.18C566.432 291.843 566.256 291.592 566.013 291.428C565.769 291.256 565.476 291.17 565.132 291.17C564.781 291.17 564.416 291.263 564.036 291.449C563.657 291.635 563.202 292.011 562.672 292.577V297.776C562.672 298.45 562.708 298.868 562.779 299.033C562.858 299.198 562.998 299.338 563.198 299.452C563.406 299.56 563.76 299.613 564.262 299.613V300H559.385V299.613C559.822 299.613 560.165 299.545 560.416 299.409C560.559 299.338 560.674 299.201 560.76 299.001C560.846 298.8 560.889 298.392 560.889 297.776V288.871C560.889 287.747 560.86 287.056 560.803 286.798C560.753 286.54 560.67 286.365 560.556 286.271C560.448 286.178 560.301 286.132 560.115 286.132C559.965 286.132 559.721 286.189 559.385 286.304L559.234 285.928L562.178 284.725H562.672ZM575.595 289.87C577.084 289.87 578.28 290.436 579.183 291.567C579.949 292.534 580.332 293.644 580.332 294.897C580.332 295.778 580.121 296.67 579.698 297.572C579.276 298.475 578.692 299.155 577.947 299.613C577.21 300.072 576.386 300.301 575.477 300.301C573.994 300.301 572.816 299.71 571.942 298.528C571.205 297.533 570.836 296.416 570.836 295.177C570.836 294.274 571.058 293.379 571.502 292.491C571.953 291.596 572.544 290.937 573.274 290.515C574.005 290.085 574.778 289.87 575.595 289.87ZM575.262 290.568C574.882 290.568 574.499 290.683 574.112 290.912C573.733 291.134 573.425 291.528 573.188 292.094C572.952 292.66 572.834 293.386 572.834 294.274C572.834 295.707 573.117 296.942 573.683 297.98C574.256 299.019 575.007 299.538 575.938 299.538C576.633 299.538 577.206 299.252 577.657 298.679C578.108 298.106 578.334 297.121 578.334 295.725C578.334 293.977 577.958 292.602 577.206 291.6C576.698 290.912 576.049 290.568 575.262 290.568ZM584.704 291.965C585.42 291.249 585.843 290.837 585.972 290.729C586.294 290.457 586.641 290.246 587.014 290.096C587.386 289.945 587.755 289.87 588.12 289.87C588.736 289.87 589.266 290.049 589.71 290.407C590.154 290.765 590.451 291.285 590.602 291.965C591.339 291.105 591.962 290.543 592.471 290.278C592.979 290.006 593.502 289.87 594.039 289.87C594.562 289.87 595.024 290.006 595.425 290.278C595.833 290.543 596.155 290.98 596.392 291.589C596.549 292.004 596.628 292.656 596.628 293.544V297.776C596.628 298.392 596.674 298.815 596.768 299.044C596.839 299.201 596.972 299.338 597.165 299.452C597.358 299.56 597.674 299.613 598.11 299.613V300H593.255V299.613H593.459C593.882 299.613 594.211 299.531 594.447 299.366C594.612 299.252 594.73 299.069 594.802 298.818C594.83 298.697 594.845 298.349 594.845 297.776V293.544C594.845 292.742 594.748 292.176 594.555 291.847C594.275 291.388 593.828 291.159 593.212 291.159C592.832 291.159 592.449 291.256 592.062 291.449C591.683 291.635 591.221 291.986 590.677 292.502L590.655 292.62L590.677 293.082V297.776C590.677 298.45 590.713 298.868 590.784 299.033C590.863 299.198 591.006 299.338 591.214 299.452C591.422 299.56 591.776 299.613 592.277 299.613V300H587.304V299.613C587.848 299.613 588.22 299.549 588.421 299.42C588.629 299.291 588.772 299.098 588.851 298.84C588.886 298.718 588.904 298.364 588.904 297.776V293.544C588.904 292.742 588.786 292.165 588.55 291.814C588.235 291.356 587.794 291.127 587.229 291.127C586.842 291.127 586.459 291.231 586.079 291.438C585.485 291.754 585.026 292.108 584.704 292.502V297.776C584.704 298.421 584.747 298.84 584.833 299.033C584.926 299.227 585.059 299.373 585.23 299.474C585.41 299.567 585.768 299.613 586.305 299.613V300H581.438V299.613C581.89 299.613 582.205 299.567 582.384 299.474C582.563 299.373 582.699 299.219 582.792 299.012C582.885 298.797 582.932 298.385 582.932 297.776V294.017C582.932 292.935 582.899 292.237 582.835 291.922C582.785 291.686 582.706 291.524 582.599 291.438C582.491 291.345 582.344 291.299 582.158 291.299C581.958 291.299 581.718 291.353 581.438 291.46L581.277 291.073L584.242 289.87H584.704V291.965ZM609.98 298.582C608.971 299.363 608.337 299.814 608.079 299.936C607.692 300.115 607.281 300.204 606.844 300.204C606.163 300.204 605.601 299.971 605.157 299.506C604.72 299.04 604.502 298.428 604.502 297.669C604.502 297.189 604.609 296.774 604.824 296.423C605.118 295.936 605.626 295.478 606.35 295.048C607.08 294.618 608.29 294.095 609.98 293.479V293.093C609.98 292.112 609.823 291.438 609.508 291.073C609.2 290.708 608.749 290.525 608.154 290.525C607.703 290.525 607.345 290.647 607.08 290.891C606.808 291.134 606.672 291.413 606.672 291.729L606.693 292.352C606.693 292.681 606.607 292.935 606.436 293.114C606.271 293.293 606.052 293.383 605.78 293.383C605.515 293.383 605.297 293.29 605.125 293.104C604.96 292.917 604.878 292.663 604.878 292.341C604.878 291.725 605.193 291.159 605.823 290.644C606.453 290.128 607.338 289.87 608.477 289.87C609.35 289.87 610.066 290.017 610.625 290.311C611.048 290.533 611.359 290.88 611.56 291.353C611.688 291.66 611.753 292.291 611.753 293.243V296.584C611.753 297.522 611.771 298.099 611.807 298.313C611.842 298.521 611.9 298.661 611.979 298.732C612.064 298.804 612.161 298.84 612.269 298.84C612.383 298.84 612.483 298.815 612.569 298.765C612.72 298.672 613.01 298.41 613.439 297.98V298.582C612.637 299.656 611.871 300.193 611.141 300.193C610.79 300.193 610.51 300.072 610.303 299.828C610.095 299.585 609.988 299.169 609.98 298.582ZM609.98 297.884V294.135C608.899 294.564 608.201 294.869 607.886 295.048C607.32 295.363 606.915 295.692 606.672 296.036C606.428 296.38 606.307 296.756 606.307 297.164C606.307 297.68 606.461 298.109 606.769 298.453C607.076 298.79 607.431 298.958 607.832 298.958C608.376 298.958 609.092 298.6 609.98 297.884ZM617.049 291.954C618.202 290.565 619.301 289.87 620.347 289.87C620.884 289.87 621.346 290.006 621.732 290.278C622.119 290.543 622.427 290.984 622.656 291.6C622.814 292.029 622.893 292.688 622.893 293.576V297.776C622.893 298.399 622.943 298.822 623.043 299.044C623.122 299.223 623.247 299.363 623.419 299.463C623.598 299.563 623.924 299.613 624.396 299.613V300H619.53V299.613H619.734C620.193 299.613 620.511 299.545 620.69 299.409C620.877 299.266 621.006 299.058 621.077 298.786C621.106 298.679 621.12 298.342 621.12 297.776V293.748C621.12 292.853 621.002 292.205 620.766 291.804C620.536 291.396 620.146 291.191 619.595 291.191C618.743 291.191 617.894 291.657 617.049 292.588V297.776C617.049 298.442 617.088 298.854 617.167 299.012C617.267 299.219 617.403 299.373 617.575 299.474C617.754 299.567 618.112 299.613 618.649 299.613V300H613.783V299.613H613.998C614.499 299.613 614.836 299.488 615.008 299.237C615.187 298.979 615.276 298.493 615.276 297.776V294.124C615.276 292.942 615.248 292.223 615.19 291.965C615.14 291.707 615.058 291.532 614.943 291.438C614.836 291.345 614.689 291.299 614.503 291.299C614.302 291.299 614.062 291.353 613.783 291.46L613.622 291.073L616.587 289.87H617.049V291.954ZM632.131 298.894C631.651 299.395 631.182 299.757 630.724 299.979C630.265 300.193 629.771 300.301 629.241 300.301C628.167 300.301 627.229 299.853 626.427 298.958C625.625 298.056 625.224 296.899 625.224 295.488C625.224 294.077 625.668 292.788 626.556 291.621C627.444 290.447 628.586 289.859 629.982 289.859C630.849 289.859 631.565 290.135 632.131 290.687V288.871C632.131 287.747 632.102 287.056 632.045 286.798C631.995 286.54 631.912 286.365 631.798 286.271C631.683 286.178 631.54 286.132 631.368 286.132C631.182 286.132 630.935 286.189 630.627 286.304L630.487 285.928L633.42 284.725H633.903V296.101C633.903 297.254 633.928 297.959 633.979 298.217C634.036 298.467 634.122 298.643 634.236 298.743C634.358 298.843 634.498 298.894 634.655 298.894C634.849 298.894 635.106 298.833 635.429 298.711L635.547 299.087L632.625 300.301H632.131V298.894ZM632.131 298.142V293.071C632.088 292.584 631.959 292.14 631.744 291.739C631.529 291.338 631.243 291.037 630.885 290.837C630.534 290.629 630.19 290.525 629.854 290.525C629.223 290.525 628.661 290.808 628.167 291.374C627.515 292.119 627.189 293.207 627.189 294.64C627.189 296.086 627.505 297.196 628.135 297.97C628.765 298.736 629.467 299.119 630.24 299.119C630.892 299.119 631.522 298.793 632.131 298.142ZM646.139 291.009V297.98C646.139 298.654 646.21 299.076 646.354 299.248C646.583 299.513 647.005 299.635 647.621 299.613V300H641.702V299.613C642.153 299.606 642.472 299.556 642.658 299.463C642.852 299.363 642.984 299.227 643.056 299.055C643.127 298.883 643.163 298.525 643.163 297.98V291.009H641.702V289.956H643.163V289.215L643.152 288.71C643.152 287.679 643.528 286.819 644.28 286.132C645.039 285.444 646.063 285.101 647.353 285.101C648.233 285.101 648.885 285.265 649.308 285.595C649.737 285.924 649.952 286.289 649.952 286.69C649.952 287.013 649.82 287.292 649.555 287.528C649.29 287.765 648.939 287.883 648.502 287.883C648.13 287.883 647.832 287.786 647.61 287.593C647.396 287.399 647.288 287.185 647.288 286.948C647.288 286.884 647.31 286.751 647.353 286.551C647.381 286.429 647.396 286.314 647.396 286.207C647.396 286.057 647.353 285.946 647.267 285.874C647.152 285.767 647.012 285.713 646.848 285.713C646.64 285.713 646.465 285.799 646.321 285.971C646.185 286.143 646.117 286.418 646.117 286.798L646.139 288.678V289.956H647.621V291.009H646.139ZM653.229 289.956V292.233C653.895 291.195 654.478 290.507 654.979 290.171C655.481 289.827 655.964 289.655 656.43 289.655C656.831 289.655 657.149 289.781 657.386 290.031C657.629 290.275 657.751 290.622 657.751 291.073C657.751 291.553 657.633 291.925 657.396 292.19C657.167 292.455 656.888 292.588 656.559 292.588C656.179 292.588 655.85 292.466 655.57 292.223C655.291 291.979 655.126 291.843 655.076 291.814C655.005 291.771 654.922 291.75 654.829 291.75C654.621 291.75 654.424 291.829 654.238 291.986C653.945 292.23 653.723 292.577 653.572 293.028C653.343 293.723 653.229 294.489 653.229 295.327V297.637L653.239 298.238C653.239 298.646 653.264 298.908 653.314 299.022C653.4 299.216 653.526 299.359 653.69 299.452C653.862 299.538 654.149 299.592 654.55 299.613V300H649.125V299.613C649.562 299.577 649.855 299.459 650.006 299.259C650.163 299.051 650.242 298.51 650.242 297.637V292.083C650.242 291.51 650.214 291.145 650.156 290.987C650.085 290.787 649.981 290.64 649.845 290.547C649.709 290.454 649.469 290.389 649.125 290.354V289.956H653.229ZM663.573 289.655C664.447 289.655 665.26 289.881 666.012 290.332C666.764 290.783 667.333 291.424 667.72 292.255C668.114 293.086 668.311 293.995 668.311 294.983C668.311 296.409 667.949 297.601 667.226 298.561C666.352 299.721 665.145 300.301 663.605 300.301C662.094 300.301 660.931 299.771 660.114 298.711C659.298 297.651 658.89 296.423 658.89 295.026C658.89 293.587 659.305 292.334 660.136 291.267C660.974 290.192 662.119 289.655 663.573 289.655ZM663.616 290.418C663.251 290.418 662.936 290.558 662.671 290.837C662.413 291.109 662.241 291.653 662.155 292.47C662.076 293.279 662.037 294.407 662.037 295.854C662.037 296.62 662.087 297.336 662.188 298.002C662.266 298.51 662.435 298.897 662.692 299.162C662.95 299.427 663.244 299.56 663.573 299.56C663.896 299.56 664.164 299.47 664.379 299.291C664.658 299.048 664.844 298.707 664.938 298.271C665.081 297.59 665.152 296.215 665.152 294.146C665.152 292.928 665.084 292.094 664.948 291.643C664.812 291.184 664.612 290.851 664.347 290.644C664.16 290.493 663.917 290.418 663.616 290.418ZM674.004 289.956V291.277C674.555 290.676 675.064 290.257 675.529 290.021C676.002 289.777 676.518 289.655 677.076 289.655C677.721 289.655 678.261 289.806 678.698 290.106C679.135 290.407 679.472 290.866 679.708 291.481C680.281 290.837 680.829 290.371 681.352 290.085C681.882 289.799 682.433 289.655 683.006 289.655C683.701 289.655 684.252 289.816 684.66 290.139C685.076 290.454 685.362 290.858 685.52 291.353C685.684 291.84 685.767 292.62 685.767 293.694V297.809C685.767 298.582 685.835 299.062 685.971 299.248C686.114 299.434 686.408 299.556 686.852 299.613V300H681.663V299.613C682.071 299.577 682.372 299.42 682.565 299.141C682.694 298.947 682.759 298.503 682.759 297.809V293.49C682.759 292.595 682.723 292.026 682.651 291.782C682.58 291.539 682.465 291.36 682.308 291.245C682.157 291.123 681.978 291.062 681.771 291.062C681.463 291.062 681.151 291.177 680.836 291.406C680.521 291.628 680.202 291.965 679.88 292.416V297.809C679.88 298.532 679.941 298.987 680.062 299.173C680.227 299.438 680.542 299.585 681.008 299.613V300H675.809V299.613C676.088 299.599 676.306 299.531 676.464 299.409C676.629 299.28 676.736 299.13 676.786 298.958C676.843 298.779 676.872 298.396 676.872 297.809V293.49C676.872 292.581 676.836 292.011 676.765 291.782C676.693 291.553 676.571 291.374 676.399 291.245C676.235 291.116 676.056 291.052 675.862 291.052C675.576 291.052 675.314 291.127 675.078 291.277C674.742 291.499 674.383 291.879 674.004 292.416V297.809C674.004 298.518 674.072 298.987 674.208 299.216C674.351 299.438 674.645 299.57 675.089 299.613V300H669.911V299.613C670.334 299.57 670.634 299.434 670.813 299.205C670.935 299.048 670.996 298.582 670.996 297.809V292.137C670.996 291.378 670.924 290.905 670.781 290.719C670.645 290.533 670.355 290.411 669.911 290.354V289.956H674.004ZM693.061 290.16H697.186V290.558C696.806 290.586 696.555 290.654 696.434 290.762C696.319 290.869 696.262 291.023 696.262 291.224C696.262 291.446 696.323 291.714 696.444 292.029L698.55 297.69L700.666 293.082L700.107 291.632C699.936 291.202 699.71 290.905 699.431 290.74C699.273 290.64 698.979 290.579 698.55 290.558V290.16H703.233V290.558C702.718 290.579 702.353 290.672 702.138 290.837C701.994 290.951 701.923 291.134 701.923 291.385C701.923 291.528 701.951 291.675 702.009 291.825L704.243 297.476L706.316 292.029C706.46 291.643 706.531 291.335 706.531 291.105C706.531 290.969 706.46 290.848 706.316 290.74C706.18 290.633 705.908 290.572 705.5 290.558V290.16H708.604V290.558C707.981 290.651 707.523 291.073 707.229 291.825L703.942 300.301H703.502L701.042 294.017L698.174 300.301H697.776L694.618 292.029C694.41 291.507 694.206 291.156 694.006 290.977C693.805 290.79 693.49 290.651 693.061 290.558V290.16ZM712.396 284.725V291.922C713.191 291.048 713.822 290.49 714.287 290.246C714.753 289.995 715.218 289.87 715.684 289.87C716.242 289.87 716.722 290.024 717.123 290.332C717.524 290.64 717.821 291.123 718.015 291.782C718.151 292.241 718.219 293.078 718.219 294.296V297.776C718.219 298.399 718.269 298.826 718.369 299.055C718.441 299.227 718.562 299.363 718.734 299.463C718.906 299.563 719.221 299.613 719.68 299.613V300H714.846V299.613H715.071C715.53 299.613 715.848 299.545 716.027 299.409C716.206 299.266 716.332 299.058 716.403 298.786C716.425 298.672 716.436 298.335 716.436 297.776V294.296C716.436 293.222 716.378 292.516 716.264 292.18C716.156 291.843 715.981 291.592 715.737 291.428C715.494 291.256 715.2 291.17 714.856 291.17C714.506 291.17 714.14 291.263 713.761 291.449C713.381 291.635 712.926 292.011 712.396 292.577V297.776C712.396 298.45 712.432 298.868 712.504 299.033C712.583 299.198 712.722 299.338 712.923 299.452C713.131 299.56 713.485 299.613 713.986 299.613V300H709.109V299.613C709.546 299.613 709.89 299.545 710.141 299.409C710.284 299.338 710.398 299.201 710.484 299.001C710.57 298.8 710.613 298.392 710.613 297.776V288.871C710.613 287.747 710.585 287.056 710.527 286.798C710.477 286.54 710.395 286.365 710.28 286.271C710.173 286.178 710.026 286.132 709.84 286.132C709.689 286.132 709.446 286.189 709.109 286.304L708.959 285.928L711.902 284.725H712.396ZM725.319 289.87C726.809 289.87 728.005 290.436 728.907 291.567C729.674 292.534 730.057 293.644 730.057 294.897C730.057 295.778 729.845 296.67 729.423 297.572C729 298.475 728.417 299.155 727.672 299.613C726.934 300.072 726.111 300.301 725.201 300.301C723.719 300.301 722.541 299.71 721.667 298.528C720.929 297.533 720.561 296.416 720.561 295.177C720.561 294.274 720.783 293.379 721.227 292.491C721.678 291.596 722.269 290.937 722.999 290.515C723.729 290.085 724.503 289.87 725.319 289.87ZM724.986 290.568C724.607 290.568 724.224 290.683 723.837 290.912C723.457 291.134 723.149 291.528 722.913 292.094C722.677 292.66 722.559 293.386 722.559 294.274C722.559 295.707 722.841 296.942 723.407 297.98C723.98 299.019 724.732 299.538 725.663 299.538C726.358 299.538 726.931 299.252 727.382 298.679C727.833 298.106 728.059 297.121 728.059 295.725C728.059 293.977 727.683 292.602 726.931 291.6C726.422 290.912 725.774 290.568 724.986 290.568ZM734.429 291.965C735.145 291.249 735.567 290.837 735.696 290.729C736.019 290.457 736.366 290.246 736.738 290.096C737.111 289.945 737.479 289.87 737.845 289.87C738.461 289.87 738.991 290.049 739.435 290.407C739.879 290.765 740.176 291.285 740.326 291.965C741.064 291.105 741.687 290.543 742.195 290.278C742.704 290.006 743.227 289.87 743.764 289.87C744.286 289.87 744.748 290.006 745.149 290.278C745.558 290.543 745.88 290.98 746.116 291.589C746.274 292.004 746.353 292.656 746.353 293.544V297.776C746.353 298.392 746.399 298.815 746.492 299.044C746.564 299.201 746.696 299.338 746.89 299.452C747.083 299.56 747.398 299.613 747.835 299.613V300H742.979V299.613H743.184C743.606 299.613 743.936 299.531 744.172 299.366C744.337 299.252 744.455 299.069 744.526 298.818C744.555 298.697 744.569 298.349 744.569 297.776V293.544C744.569 292.742 744.473 292.176 744.279 291.847C744 291.388 743.552 291.159 742.937 291.159C742.557 291.159 742.174 291.256 741.787 291.449C741.408 291.635 740.946 291.986 740.401 292.502L740.38 292.62L740.401 293.082V297.776C740.401 298.45 740.437 298.868 740.509 299.033C740.588 299.198 740.731 299.338 740.938 299.452C741.146 299.56 741.501 299.613 742.002 299.613V300H737.028V299.613C737.573 299.613 737.945 299.549 738.146 299.42C738.353 299.291 738.496 299.098 738.575 298.84C738.611 298.718 738.629 298.364 738.629 297.776V293.544C738.629 292.742 738.511 292.165 738.274 291.814C737.959 291.356 737.519 291.127 736.953 291.127C736.566 291.127 736.183 291.231 735.804 291.438C735.209 291.754 734.751 292.108 734.429 292.502V297.776C734.429 298.421 734.472 298.84 734.558 299.033C734.651 299.227 734.783 299.373 734.955 299.474C735.134 299.567 735.492 299.613 736.029 299.613V300H731.163V299.613C731.614 299.613 731.929 299.567 732.108 299.474C732.287 299.373 732.424 299.219 732.517 299.012C732.61 298.797 732.656 298.385 732.656 297.776V294.017C732.656 292.935 732.624 292.237 732.56 291.922C732.509 291.686 732.431 291.524 732.323 291.438C732.216 291.345 732.069 291.299 731.883 291.299C731.682 291.299 731.442 291.353 731.163 291.46L731.002 291.073L733.967 289.87H734.429V291.965ZM756.633 284.725C756.934 284.725 757.188 284.832 757.396 285.047C757.61 285.255 757.718 285.509 757.718 285.81C757.718 286.11 757.61 286.368 757.396 286.583C757.188 286.798 756.934 286.905 756.633 286.905C756.332 286.905 756.074 286.798 755.859 286.583C755.645 286.368 755.537 286.11 755.537 285.81C755.537 285.509 755.641 285.255 755.849 285.047C756.063 284.832 756.325 284.725 756.633 284.725ZM757.524 289.87V297.776C757.524 298.392 757.567 298.804 757.653 299.012C757.746 299.212 757.879 299.363 758.051 299.463C758.23 299.563 758.552 299.613 759.018 299.613V300H754.237V299.613C754.717 299.613 755.039 299.567 755.204 299.474C755.369 299.381 755.498 299.227 755.591 299.012C755.691 298.797 755.741 298.385 755.741 297.776V293.984C755.741 292.917 755.709 292.226 755.645 291.911C755.594 291.682 755.516 291.524 755.408 291.438C755.301 291.345 755.154 291.299 754.968 291.299C754.767 291.299 754.524 291.353 754.237 291.46L754.087 291.073L757.052 289.87H757.524ZM766.612 289.87V293.222H766.258C765.986 292.169 765.635 291.453 765.205 291.073C764.783 290.694 764.242 290.504 763.583 290.504C763.082 290.504 762.677 290.636 762.369 290.901C762.061 291.166 761.907 291.46 761.907 291.782C761.907 292.183 762.022 292.527 762.251 292.813C762.473 293.107 762.924 293.419 763.604 293.748L765.173 294.511C766.627 295.22 767.354 296.154 767.354 297.314C767.354 298.21 767.013 298.933 766.333 299.484C765.66 300.029 764.904 300.301 764.066 300.301C763.465 300.301 762.777 300.193 762.004 299.979C761.768 299.907 761.574 299.871 761.424 299.871C761.259 299.871 761.13 299.964 761.037 300.15H760.683V296.638H761.037C761.238 297.64 761.621 298.396 762.187 298.904C762.752 299.413 763.386 299.667 764.088 299.667C764.582 299.667 764.983 299.524 765.291 299.237C765.606 298.944 765.764 298.593 765.764 298.185C765.764 297.69 765.588 297.275 765.237 296.938C764.894 296.602 764.202 296.176 763.164 295.66C762.126 295.145 761.445 294.679 761.123 294.264C760.801 293.855 760.64 293.34 760.64 292.717C760.64 291.908 760.915 291.231 761.467 290.687C762.025 290.142 762.745 289.87 763.626 289.87C764.013 289.87 764.482 289.952 765.033 290.117C765.398 290.225 765.642 290.278 765.764 290.278C765.878 290.278 765.968 290.253 766.032 290.203C766.097 290.153 766.172 290.042 766.258 289.87H766.612ZM777.183 286.927V290.16H779.481V290.912H777.183V297.293C777.183 297.93 777.272 298.36 777.451 298.582C777.637 298.804 777.874 298.915 778.16 298.915C778.396 298.915 778.626 298.843 778.848 298.7C779.07 298.55 779.242 298.331 779.363 298.045H779.782C779.532 298.747 779.177 299.277 778.719 299.635C778.26 299.986 777.788 300.161 777.301 300.161C776.971 300.161 776.649 300.072 776.334 299.893C776.019 299.706 775.786 299.445 775.636 299.108C775.485 298.765 775.41 298.238 775.41 297.529V290.912H773.853V290.558C774.246 290.4 774.647 290.135 775.056 289.763C775.471 289.383 775.84 288.936 776.162 288.42C776.327 288.148 776.556 287.65 776.85 286.927H777.183ZM783.338 284.725V291.922C784.133 291.048 784.763 290.49 785.229 290.246C785.694 289.995 786.16 289.87 786.625 289.87C787.184 289.87 787.663 290.024 788.064 290.332C788.465 290.64 788.763 291.123 788.956 291.782C789.092 292.241 789.16 293.078 789.16 294.296V297.776C789.16 298.399 789.21 298.826 789.311 299.055C789.382 299.227 789.504 299.363 789.676 299.463C789.848 299.563 790.163 299.613 790.621 299.613V300H785.787V299.613H786.013C786.471 299.613 786.79 299.545 786.969 299.409C787.148 299.266 787.273 299.058 787.345 298.786C787.366 298.672 787.377 298.335 787.377 297.776V294.296C787.377 293.222 787.32 292.516 787.205 292.18C787.098 291.843 786.922 291.592 786.679 291.428C786.435 291.256 786.142 291.17 785.798 291.17C785.447 291.17 785.082 291.263 784.702 291.449C784.323 291.635 783.868 292.011 783.338 292.577V297.776C783.338 298.45 783.374 298.868 783.445 299.033C783.524 299.198 783.664 299.338 783.864 299.452C784.072 299.56 784.426 299.613 784.928 299.613V300H780.051V299.613C780.488 299.613 780.831 299.545 781.082 299.409C781.225 299.338 781.34 299.201 781.426 299.001C781.512 298.8 781.555 298.392 781.555 297.776V288.871C781.555 287.747 781.526 287.056 781.469 286.798C781.419 286.54 781.336 286.365 781.222 286.271C781.114 286.178 780.967 286.132 780.781 286.132C780.631 286.132 780.387 286.189 780.051 286.304L779.9 285.928L782.844 284.725H783.338ZM793.951 284.725C794.252 284.725 794.506 284.832 794.714 285.047C794.929 285.255 795.036 285.509 795.036 285.81C795.036 286.11 794.929 286.368 794.714 286.583C794.506 286.798 794.252 286.905 793.951 286.905C793.65 286.905 793.393 286.798 793.178 286.583C792.963 286.368 792.855 286.11 792.855 285.81C792.855 285.509 792.959 285.255 793.167 285.047C793.382 284.832 793.643 284.725 793.951 284.725ZM794.843 289.87V297.776C794.843 298.392 794.886 298.804 794.972 299.012C795.065 299.212 795.197 299.363 795.369 299.463C795.548 299.563 795.87 299.613 796.336 299.613V300H791.556V299.613C792.035 299.613 792.358 299.567 792.522 299.474C792.687 299.381 792.816 299.227 792.909 299.012C793.009 298.797 793.06 298.385 793.06 297.776V293.984C793.06 292.917 793.027 292.226 792.963 291.911C792.913 291.682 792.834 291.524 792.727 291.438C792.619 291.345 792.472 291.299 792.286 291.299C792.086 291.299 791.842 291.353 791.556 291.46L791.405 291.073L794.37 289.87H794.843ZM803.931 289.87V293.222H803.576C803.304 292.169 802.953 291.453 802.523 291.073C802.101 290.694 801.56 290.504 800.901 290.504C800.4 290.504 799.995 290.636 799.688 290.901C799.38 291.166 799.226 291.46 799.226 291.782C799.226 292.183 799.34 292.527 799.569 292.813C799.791 293.107 800.243 293.419 800.923 293.748L802.491 294.511C803.945 295.22 804.672 296.154 804.672 297.314C804.672 298.21 804.332 298.933 803.651 299.484C802.978 300.029 802.223 300.301 801.385 300.301C800.783 300.301 800.096 300.193 799.322 299.979C799.086 299.907 798.893 299.871 798.742 299.871C798.577 299.871 798.449 299.964 798.355 300.15H798.001V296.638H798.355C798.556 297.64 798.939 298.396 799.505 298.904C800.071 299.413 800.704 299.667 801.406 299.667C801.9 299.667 802.301 299.524 802.609 299.237C802.924 298.944 803.082 298.593 803.082 298.185C803.082 297.69 802.907 297.275 802.556 296.938C802.212 296.602 801.521 296.176 800.482 295.66C799.444 295.145 798.764 294.679 798.441 294.264C798.119 293.855 797.958 293.34 797.958 292.717C797.958 291.908 798.234 291.231 798.785 290.687C799.344 290.142 800.063 289.87 800.944 289.87C801.331 289.87 801.8 289.952 802.352 290.117C802.717 290.225 802.96 290.278 803.082 290.278C803.197 290.278 803.286 290.253 803.351 290.203C803.415 290.153 803.49 290.042 803.576 289.87H803.931ZM811.139 290.16H815.769V290.558H815.468C815.188 290.558 814.974 290.626 814.823 290.762C814.68 290.898 814.608 291.08 814.608 291.31C814.608 291.56 814.684 291.857 814.834 292.201L817.122 297.637L819.421 291.997C819.586 291.596 819.668 291.292 819.668 291.084C819.668 290.984 819.639 290.901 819.582 290.837C819.503 290.729 819.403 290.658 819.281 290.622C819.16 290.579 818.912 290.558 818.54 290.558V290.16H821.752V290.558C821.38 290.586 821.122 290.661 820.979 290.783C820.728 290.998 820.502 291.356 820.302 291.857L816.811 300.301H816.37L812.857 291.997C812.7 291.61 812.549 291.335 812.406 291.17C812.263 290.998 812.08 290.855 811.858 290.74C811.737 290.676 811.497 290.615 811.139 290.558V290.16ZM828.219 298.582C827.209 299.363 826.575 299.814 826.317 299.936C825.931 300.115 825.519 300.204 825.082 300.204C824.402 300.204 823.84 299.971 823.396 299.506C822.959 299.04 822.74 298.428 822.74 297.669C822.74 297.189 822.848 296.774 823.062 296.423C823.356 295.936 823.865 295.478 824.588 295.048C825.318 294.618 826.529 294.095 828.219 293.479V293.093C828.219 292.112 828.061 291.438 827.746 291.073C827.438 290.708 826.987 290.525 826.393 290.525C825.941 290.525 825.583 290.647 825.318 290.891C825.046 291.134 824.91 291.413 824.91 291.729L824.932 292.352C824.932 292.681 824.846 292.935 824.674 293.114C824.509 293.293 824.291 293.383 824.019 293.383C823.754 293.383 823.535 293.29 823.363 293.104C823.199 292.917 823.116 292.663 823.116 292.341C823.116 291.725 823.431 291.159 824.062 290.644C824.692 290.128 825.576 289.87 826.715 289.87C827.589 289.87 828.305 290.017 828.863 290.311C829.286 290.533 829.597 290.88 829.798 291.353C829.927 291.66 829.991 292.291 829.991 293.243V296.584C829.991 297.522 830.009 298.099 830.045 298.313C830.081 298.521 830.138 298.661 830.217 298.732C830.303 298.804 830.399 298.84 830.507 298.84C830.621 298.84 830.722 298.815 830.808 298.765C830.958 298.672 831.248 298.41 831.678 297.98V298.582C830.876 299.656 830.109 300.193 829.379 300.193C829.028 300.193 828.749 300.072 828.541 299.828C828.333 299.585 828.226 299.169 828.219 298.582ZM828.219 297.884V294.135C827.137 294.564 826.439 294.869 826.124 295.048C825.558 295.363 825.154 295.692 824.91 296.036C824.667 296.38 824.545 296.756 824.545 297.164C824.545 297.68 824.699 298.109 825.007 298.453C825.315 298.79 825.669 298.958 826.07 298.958C826.615 298.958 827.331 298.6 828.219 297.884ZM835.803 284.725V297.776C835.803 298.392 835.846 298.8 835.932 299.001C836.025 299.201 836.164 299.355 836.351 299.463C836.537 299.563 836.884 299.613 837.393 299.613V300H832.569V299.613C833.021 299.613 833.328 299.567 833.493 299.474C833.658 299.381 833.787 299.227 833.88 299.012C833.973 298.797 834.02 298.385 834.02 297.776V288.839C834.02 287.729 833.994 287.049 833.944 286.798C833.894 286.54 833.812 286.365 833.697 286.271C833.59 286.178 833.45 286.132 833.278 286.132C833.092 286.132 832.856 286.189 832.569 286.304L832.387 285.928L835.319 284.725H835.803ZM840.196 293.866C840.189 295.327 840.544 296.473 841.26 297.304C841.976 298.134 842.817 298.55 843.784 298.55C844.429 298.55 844.987 298.374 845.46 298.023C845.94 297.665 846.341 297.057 846.663 296.197L846.996 296.412C846.846 297.393 846.409 298.288 845.686 299.098C844.962 299.9 844.056 300.301 842.968 300.301C841.786 300.301 840.773 299.842 839.928 298.926C839.09 298.002 838.671 296.763 838.671 295.209C838.671 293.526 839.101 292.215 839.96 291.277C840.826 290.332 841.911 289.859 843.215 289.859C844.318 289.859 845.224 290.225 845.933 290.955C846.642 291.678 846.996 292.649 846.996 293.866H840.196ZM840.196 293.243H844.751C844.715 292.613 844.64 292.169 844.525 291.911C844.346 291.51 844.078 291.195 843.72 290.966C843.369 290.737 843 290.622 842.613 290.622C842.019 290.622 841.485 290.855 841.013 291.32C840.547 291.779 840.275 292.42 840.196 293.243ZM851.186 291.954C852.339 290.565 853.438 289.87 854.483 289.87C855.021 289.87 855.482 290.006 855.869 290.278C856.256 290.543 856.564 290.984 856.793 291.6C856.951 292.029 857.029 292.688 857.029 293.576V297.776C857.029 298.399 857.079 298.822 857.18 299.044C857.258 299.223 857.384 299.363 857.556 299.463C857.735 299.563 858.061 299.613 858.533 299.613V300H853.667V299.613H853.871C854.329 299.613 854.648 299.545 854.827 299.409C855.013 299.266 855.142 299.058 855.214 298.786C855.243 298.679 855.257 298.342 855.257 297.776V293.748C855.257 292.853 855.139 292.205 854.902 291.804C854.673 291.396 854.283 291.191 853.731 291.191C852.879 291.191 852.031 291.657 851.186 292.588V297.776C851.186 298.442 851.225 298.854 851.304 299.012C851.404 299.219 851.54 299.373 851.712 299.474C851.891 299.567 852.249 299.613 852.786 299.613V300H847.92V299.613H848.135C848.636 299.613 848.973 299.488 849.145 299.237C849.324 298.979 849.413 298.493 849.413 297.776V294.124C849.413 292.942 849.384 292.223 849.327 291.965C849.277 291.707 849.195 291.532 849.08 291.438C848.973 291.345 848.826 291.299 848.64 291.299C848.439 291.299 848.199 291.353 847.92 291.46L847.759 291.073L850.724 289.87H851.186V291.954ZM862.175 286.927V290.16H864.474V290.912H862.175V297.293C862.175 297.93 862.264 298.36 862.443 298.582C862.63 298.804 862.866 298.915 863.152 298.915C863.389 298.915 863.618 298.843 863.84 298.7C864.062 298.55 864.234 298.331 864.355 298.045H864.774C864.524 298.747 864.169 299.277 863.711 299.635C863.253 299.986 862.78 300.161 862.293 300.161C861.964 300.161 861.641 300.072 861.326 299.893C861.011 299.706 860.778 299.445 860.628 299.108C860.478 298.765 860.402 298.238 860.402 297.529V290.912H858.845V290.558C859.239 290.4 859.64 290.135 860.048 289.763C860.463 289.383 860.832 288.936 861.154 288.42C861.319 288.148 861.548 287.65 861.842 286.927H862.175ZM867.943 284.725C868.244 284.725 868.498 284.832 868.706 285.047C868.921 285.255 869.028 285.509 869.028 285.81C869.028 286.11 868.921 286.368 868.706 286.583C868.498 286.798 868.244 286.905 867.943 286.905C867.643 286.905 867.385 286.798 867.17 286.583C866.955 286.368 866.848 286.11 866.848 285.81C866.848 285.509 866.951 285.255 867.159 285.047C867.374 284.832 867.635 284.725 867.943 284.725ZM868.835 289.87V297.776C868.835 298.392 868.878 298.804 868.964 299.012C869.057 299.212 869.189 299.363 869.361 299.463C869.54 299.563 869.863 299.613 870.328 299.613V300H865.548V299.613C866.028 299.613 866.35 299.567 866.515 299.474C866.679 299.381 866.808 299.227 866.901 299.012C867.002 298.797 867.052 298.385 867.052 297.776V293.984C867.052 292.917 867.02 292.226 866.955 291.911C866.905 291.682 866.826 291.524 866.719 291.438C866.611 291.345 866.465 291.299 866.278 291.299C866.078 291.299 865.834 291.353 865.548 291.46L865.397 291.073L868.362 289.87H868.835ZM874.432 291.954C875.585 290.565 876.684 289.87 877.729 289.87C878.267 289.87 878.729 290.006 879.115 290.278C879.502 290.543 879.81 290.984 880.039 291.6C880.197 292.029 880.275 292.688 880.275 293.576V297.776C880.275 298.399 880.326 298.822 880.426 299.044C880.505 299.223 880.63 299.363 880.802 299.463C880.981 299.563 881.307 299.613 881.779 299.613V300H876.913V299.613H877.117C877.576 299.613 877.894 299.545 878.073 299.409C878.259 299.266 878.388 299.058 878.46 298.786C878.489 298.679 878.503 298.342 878.503 297.776V293.748C878.503 292.853 878.385 292.205 878.148 291.804C877.919 291.396 877.529 291.191 876.978 291.191C876.125 291.191 875.277 291.657 874.432 292.588V297.776C874.432 298.442 874.471 298.854 874.55 299.012C874.65 299.219 874.786 299.373 874.958 299.474C875.137 299.567 875.495 299.613 876.032 299.613V300H871.166V299.613H871.381C871.882 299.613 872.219 299.488 872.391 299.237C872.57 298.979 872.659 298.493 872.659 297.776V294.124C872.659 292.942 872.631 292.223 872.573 291.965C872.523 291.707 872.441 291.532 872.326 291.438C872.219 291.345 872.072 291.299 871.886 291.299C871.685 291.299 871.445 291.353 871.166 291.46L871.005 291.073L873.97 289.87H874.432V291.954ZM884.218 293.866C884.211 295.327 884.565 296.473 885.281 297.304C885.997 298.134 886.839 298.55 887.806 298.55C888.45 298.55 889.009 298.374 889.481 298.023C889.961 297.665 890.362 297.057 890.685 296.197L891.018 296.412C890.867 297.393 890.43 298.288 889.707 299.098C888.984 299.9 888.078 300.301 886.989 300.301C885.808 300.301 884.794 299.842 883.949 298.926C883.111 298.002 882.692 296.763 882.692 295.209C882.692 293.526 883.122 292.215 883.981 291.277C884.848 290.332 885.933 289.859 887.236 289.859C888.339 289.859 889.245 290.225 889.954 290.955C890.663 291.678 891.018 292.649 891.018 293.866H884.218ZM884.218 293.243H888.772C888.737 292.613 888.661 292.169 888.547 291.911C888.368 291.51 888.099 291.195 887.741 290.966C887.39 290.737 887.021 290.622 886.635 290.622C886.04 290.622 885.507 290.855 885.034 291.32C884.569 291.779 884.297 292.42 884.218 293.243ZM894.208 290.665V290.16C894.946 289.723 895.447 289.315 895.712 288.936C895.898 288.663 895.991 288.338 895.991 287.958C895.991 287.736 895.952 287.571 895.873 287.464C895.787 287.356 895.694 287.303 895.594 287.303C895.515 287.303 895.411 287.328 895.282 287.378C895.096 287.442 894.942 287.475 894.82 287.475C894.534 287.475 894.28 287.367 894.058 287.152C893.836 286.938 893.725 286.669 893.725 286.347C893.725 285.989 893.836 285.709 894.058 285.509C894.358 285.237 894.716 285.101 895.132 285.101C895.612 285.101 896.041 285.305 896.421 285.713C896.808 286.114 897.001 286.615 897.001 287.217C897.001 288.062 896.682 288.832 896.045 289.526C895.622 289.985 895.01 290.364 894.208 290.665ZM906.024 289.87V293.222H905.67C905.398 292.169 905.047 291.453 904.617 291.073C904.195 290.694 903.654 290.504 902.995 290.504C902.494 290.504 902.089 290.636 901.781 290.901C901.473 291.166 901.319 291.46 901.319 291.782C901.319 292.183 901.434 292.527 901.663 292.813C901.885 293.107 902.336 293.419 903.017 293.748L904.585 294.511C906.039 295.22 906.766 296.154 906.766 297.314C906.766 298.21 906.425 298.933 905.745 299.484C905.072 300.029 904.316 300.301 903.479 300.301C902.877 300.301 902.189 300.193 901.416 299.979C901.18 299.907 900.986 299.871 900.836 299.871C900.671 299.871 900.542 299.964 900.449 300.15H900.095V296.638H900.449C900.65 297.64 901.033 298.396 901.599 298.904C902.164 299.413 902.798 299.667 903.5 299.667C903.994 299.667 904.395 299.524 904.703 299.237C905.018 298.944 905.176 298.593 905.176 298.185C905.176 297.69 905 297.275 904.649 296.938C904.306 296.602 903.615 296.176 902.576 295.66C901.538 295.145 900.857 294.679 900.535 294.264C900.213 293.855 900.052 293.34 900.052 292.717C900.052 291.908 900.327 291.231 900.879 290.687C901.438 290.142 902.157 289.87 903.038 289.87C903.425 289.87 903.894 289.952 904.445 290.117C904.811 290.225 905.054 290.278 905.176 290.278C905.29 290.278 905.38 290.253 905.444 290.203C905.509 290.153 905.584 290.042 905.67 289.87H906.024ZM920.688 298.894C920.208 299.395 919.739 299.757 919.28 299.979C918.822 300.193 918.328 300.301 917.798 300.301C916.724 300.301 915.785 299.853 914.983 298.958C914.181 298.056 913.78 296.899 913.78 295.488C913.78 294.077 914.224 292.788 915.112 291.621C916 290.447 917.143 289.859 918.539 289.859C919.406 289.859 920.122 290.135 920.688 290.687V288.871C920.688 287.747 920.659 287.056 920.602 286.798C920.551 286.54 920.469 286.365 920.354 286.271C920.24 286.178 920.097 286.132 919.925 286.132C919.739 286.132 919.492 286.189 919.184 286.304L919.044 285.928L921.977 284.725H922.46V296.101C922.46 297.254 922.485 297.959 922.535 298.217C922.592 298.467 922.678 298.643 922.793 298.743C922.915 298.843 923.054 298.894 923.212 298.894C923.405 298.894 923.663 298.833 923.985 298.711L924.104 299.087L921.182 300.301H920.688V298.894ZM920.688 298.142V293.071C920.645 292.584 920.516 292.14 920.301 291.739C920.086 291.338 919.799 291.037 919.441 290.837C919.09 290.629 918.747 290.525 918.41 290.525C917.78 290.525 917.218 290.808 916.724 291.374C916.072 292.119 915.746 293.207 915.746 294.64C915.746 296.086 916.061 297.196 916.691 297.97C917.322 298.736 918.023 299.119 918.797 299.119C919.449 299.119 920.079 298.793 920.688 298.142ZM930.312 298.582C929.303 299.363 928.669 299.814 928.411 299.936C928.024 300.115 927.613 300.204 927.176 300.204C926.495 300.204 925.933 299.971 925.489 299.506C925.052 299.04 924.834 298.428 924.834 297.669C924.834 297.189 924.941 296.774 925.156 296.423C925.45 295.936 925.958 295.478 926.682 295.048C927.412 294.618 928.622 294.095 930.312 293.479V293.093C930.312 292.112 930.155 291.438 929.84 291.073C929.532 290.708 929.081 290.525 928.486 290.525C928.035 290.525 927.677 290.647 927.412 290.891C927.14 291.134 927.004 291.413 927.004 291.729L927.025 292.352C927.025 292.681 926.939 292.935 926.768 293.114C926.603 293.293 926.384 293.383 926.112 293.383C925.847 293.383 925.629 293.29 925.457 293.104C925.292 292.917 925.21 292.663 925.21 292.341C925.21 291.725 925.525 291.159 926.155 290.644C926.785 290.128 927.67 289.87 928.809 289.87C929.682 289.87 930.398 290.017 930.957 290.311C931.38 290.533 931.691 290.88 931.892 291.353C932.021 291.66 932.085 292.291 932.085 293.243V296.584C932.085 297.522 932.103 298.099 932.139 298.313C932.174 298.521 932.232 298.661 932.311 298.732C932.396 298.804 932.493 298.84 932.601 298.84C932.715 298.84 932.815 298.815 932.901 298.765C933.052 298.672 933.342 298.41 933.771 297.98V298.582C932.969 299.656 932.203 300.193 931.473 300.193C931.122 300.193 930.842 300.072 930.635 299.828C930.427 299.585 930.32 299.169 930.312 298.582ZM930.312 297.884V294.135C929.231 294.564 928.533 294.869 928.218 295.048C927.652 295.363 927.247 295.692 927.004 296.036C926.76 296.38 926.639 296.756 926.639 297.164C926.639 297.68 926.793 298.109 927.101 298.453C927.409 298.79 927.763 298.958 928.164 298.958C928.708 298.958 929.424 298.6 930.312 297.884ZM933.954 290.16H938.541V290.558H938.315C937.993 290.558 937.75 290.629 937.585 290.772C937.427 290.909 937.349 291.08 937.349 291.288C937.349 291.567 937.467 291.954 937.703 292.448L940.099 297.411L942.301 291.976C942.423 291.682 942.483 291.392 942.483 291.105C942.483 290.977 942.458 290.88 942.408 290.815C942.351 290.737 942.261 290.676 942.14 290.633C942.018 290.583 941.803 290.558 941.495 290.558V290.16H944.696V290.558C944.431 290.586 944.227 290.644 944.084 290.729C943.941 290.815 943.783 290.977 943.611 291.213C943.547 291.313 943.425 291.589 943.246 292.04L939.239 301.858C938.853 302.811 938.344 303.531 937.714 304.018C937.091 304.505 936.489 304.748 935.909 304.748C935.487 304.748 935.139 304.626 934.867 304.383C934.595 304.139 934.459 303.86 934.459 303.545C934.459 303.244 934.556 303.001 934.749 302.814C934.95 302.635 935.222 302.546 935.565 302.546C935.802 302.546 936.124 302.625 936.532 302.782C936.819 302.89 936.998 302.943 937.069 302.943C937.284 302.943 937.517 302.832 937.768 302.61C938.025 302.388 938.283 301.959 938.541 301.321L939.239 299.613L935.705 292.19C935.598 291.968 935.426 291.693 935.189 291.363C935.01 291.113 934.864 290.944 934.749 290.858C934.584 290.744 934.319 290.644 933.954 290.558V290.16ZM959.37 296.262C959.105 297.558 958.586 298.557 957.812 299.259C957.039 299.953 956.183 300.301 955.245 300.301C954.128 300.301 953.154 299.832 952.323 298.894C951.493 297.955 951.077 296.688 951.077 295.091C951.077 293.544 951.535 292.287 952.452 291.32C953.376 290.354 954.482 289.87 955.771 289.87C956.738 289.87 957.533 290.128 958.156 290.644C958.779 291.152 959.091 291.682 959.091 292.233C959.091 292.506 959.001 292.728 958.822 292.899C958.65 293.064 958.407 293.146 958.092 293.146C957.669 293.146 957.351 293.01 957.136 292.738C957.014 292.588 956.932 292.301 956.889 291.879C956.853 291.456 956.71 291.134 956.459 290.912C956.208 290.697 955.861 290.59 955.417 290.59C954.701 290.59 954.124 290.855 953.688 291.385C953.107 292.087 952.817 293.014 952.817 294.167C952.817 295.341 953.104 296.38 953.677 297.282C954.257 298.177 955.037 298.625 956.019 298.625C956.72 298.625 957.351 298.385 957.909 297.905C958.303 297.576 958.686 296.978 959.059 296.111L959.37 296.262ZM966.363 298.582C965.354 299.363 964.72 299.814 964.462 299.936C964.075 300.115 963.663 300.204 963.227 300.204C962.546 300.204 961.984 299.971 961.54 299.506C961.103 299.04 960.885 298.428 960.885 297.669C960.885 297.189 960.992 296.774 961.207 296.423C961.501 295.936 962.009 295.478 962.732 295.048C963.463 294.618 964.673 294.095 966.363 293.479V293.093C966.363 292.112 966.206 291.438 965.891 291.073C965.583 290.708 965.132 290.525 964.537 290.525C964.086 290.525 963.728 290.647 963.463 290.891C963.191 291.134 963.055 291.413 963.055 291.729L963.076 292.352C963.076 292.681 962.99 292.935 962.818 293.114C962.654 293.293 962.435 293.383 962.163 293.383C961.898 293.383 961.68 293.29 961.508 293.104C961.343 292.917 961.261 292.663 961.261 292.341C961.261 291.725 961.576 291.159 962.206 290.644C962.836 290.128 963.721 289.87 964.859 289.87C965.733 289.87 966.449 290.017 967.008 290.311C967.43 290.533 967.742 290.88 967.942 291.353C968.071 291.66 968.136 292.291 968.136 293.243V296.584C968.136 297.522 968.154 298.099 968.189 298.313C968.225 298.521 968.283 298.661 968.361 298.732C968.447 298.804 968.544 298.84 968.651 298.84C968.766 298.84 968.866 298.815 968.952 298.765C969.103 298.672 969.393 298.41 969.822 297.98V298.582C969.02 299.656 968.254 300.193 967.523 300.193C967.173 300.193 966.893 300.072 966.686 299.828C966.478 299.585 966.37 299.169 966.363 298.582ZM966.363 297.884V294.135C965.282 294.564 964.584 294.869 964.269 295.048C963.703 295.363 963.298 295.692 963.055 296.036C962.811 296.38 962.689 296.756 962.689 297.164C962.689 297.68 962.843 298.109 963.151 298.453C963.459 298.79 963.814 298.958 964.215 298.958C964.759 298.958 965.475 298.6 966.363 297.884ZM973.442 289.87V292.083C974.266 290.608 975.111 289.87 975.978 289.87C976.371 289.87 976.697 289.992 976.955 290.235C977.213 290.472 977.342 290.747 977.342 291.062C977.342 291.342 977.249 291.578 977.062 291.771C976.876 291.965 976.654 292.062 976.396 292.062C976.146 292.062 975.863 291.94 975.548 291.696C975.24 291.446 975.011 291.32 974.86 291.32C974.731 291.32 974.592 291.392 974.441 291.535C974.119 291.829 973.786 292.312 973.442 292.985V297.701C973.442 298.245 973.51 298.657 973.646 298.937C973.74 299.13 973.904 299.291 974.141 299.42C974.377 299.549 974.717 299.613 975.161 299.613V300H970.123V299.613C970.624 299.613 970.997 299.535 971.24 299.377C971.419 299.262 971.545 299.08 971.616 298.829C971.652 298.707 971.67 298.36 971.67 297.787V293.974C971.67 292.828 971.645 292.147 971.595 291.933C971.552 291.711 971.466 291.549 971.337 291.449C971.215 291.349 971.061 291.299 970.875 291.299C970.653 291.299 970.402 291.353 970.123 291.46L970.016 291.073L972.991 289.87H973.442ZM984.84 298.894C984.36 299.395 983.891 299.757 983.433 299.979C982.974 300.193 982.48 300.301 981.95 300.301C980.876 300.301 979.938 299.853 979.136 298.958C978.334 298.056 977.933 296.899 977.933 295.488C977.933 294.077 978.377 292.788 979.265 291.621C980.153 290.447 981.295 289.859 982.691 289.859C983.558 289.859 984.274 290.135 984.84 290.687V288.871C984.84 287.747 984.811 287.056 984.754 286.798C984.704 286.54 984.621 286.365 984.507 286.271C984.392 286.178 984.249 286.132 984.077 286.132C983.891 286.132 983.644 286.189 983.336 286.304L983.196 285.928L986.129 284.725H986.612V296.101C986.612 297.254 986.637 297.959 986.688 298.217C986.745 298.467 986.831 298.643 986.945 298.743C987.067 298.843 987.207 298.894 987.364 298.894C987.558 298.894 987.815 298.833 988.138 298.711L988.256 299.087L985.334 300.301H984.84V298.894ZM984.84 298.142V293.071C984.797 292.584 984.668 292.14 984.453 291.739C984.238 291.338 983.952 291.037 983.594 290.837C983.243 290.629 982.899 290.525 982.562 290.525C981.932 290.525 981.37 290.808 980.876 291.374C980.224 292.119 979.898 293.207 979.898 294.64C979.898 296.086 980.214 297.196 980.844 297.97C981.474 298.736 982.176 299.119 982.949 299.119C983.601 299.119 984.231 298.793 984.84 298.142ZM993.079 296.562H992.639C992.689 295.66 992.8 294.915 992.972 294.328C993.151 293.734 993.516 292.91 994.067 291.857C994.497 291.048 994.776 290.429 994.905 289.999C995.034 289.562 995.099 289.122 995.099 288.678C995.099 287.768 994.855 287.045 994.368 286.508C993.888 285.971 993.298 285.702 992.596 285.702C991.973 285.702 991.482 285.849 991.124 286.143C990.766 286.436 990.587 286.755 990.587 287.099C990.587 287.364 990.694 287.689 990.909 288.076C991.124 288.463 991.231 288.757 991.231 288.957C991.231 289.215 991.149 289.433 990.984 289.612C990.82 289.784 990.619 289.87 990.383 289.87C990.082 289.87 989.806 289.723 989.556 289.43C989.312 289.129 989.19 288.714 989.19 288.184C989.19 287.374 989.538 286.658 990.232 286.035C990.927 285.412 991.869 285.101 993.058 285.101C994.533 285.101 995.618 285.53 996.312 286.39C996.828 287.02 997.086 287.718 997.086 288.484C997.086 289.007 996.968 289.544 996.731 290.096C996.502 290.647 996.062 291.295 995.41 292.04C994.372 293.215 993.734 294.049 993.498 294.543C993.269 295.03 993.129 295.703 993.079 296.562ZM992.929 297.895C993.265 297.895 993.548 298.013 993.777 298.249C994.014 298.478 994.132 298.761 994.132 299.098C994.132 299.427 994.014 299.71 993.777 299.946C993.541 300.175 993.258 300.29 992.929 300.29C992.599 300.29 992.316 300.175 992.08 299.946C991.851 299.71 991.736 299.427 991.736 299.098C991.736 298.761 991.851 298.478 992.08 298.249C992.316 298.013 992.599 297.895 992.929 297.895Z" fill="#0000FF"/>
<rect x="653.5" y="557.5" width="202" height="46" fill="#FF0000" stroke="#FF0000"/>
<path d="M533.879 383.434V387.376H533.492C533.263 386.466 533.009 385.815 532.729 385.421C532.45 385.02 532.067 384.701 531.58 384.465C531.308 384.336 530.832 384.271 530.151 384.271H529.066V395.508C529.066 396.253 529.106 396.718 529.185 396.904C529.271 397.09 529.432 397.255 529.668 397.398C529.911 397.535 530.241 397.603 530.656 397.603H531.14V398H523.513V397.603H523.996C524.419 397.603 524.759 397.527 525.017 397.377C525.203 397.277 525.35 397.105 525.457 396.861C525.536 396.689 525.575 396.238 525.575 395.508V384.271H524.522C523.541 384.271 522.829 384.479 522.385 384.895C521.762 385.475 521.368 386.302 521.203 387.376H520.795V383.434H533.879ZM540.152 387.655C541.026 387.655 541.839 387.881 542.591 388.332C543.343 388.783 543.912 389.424 544.299 390.255C544.693 391.086 544.89 391.995 544.89 392.983C544.89 394.409 544.528 395.601 543.805 396.561C542.931 397.721 541.724 398.301 540.185 398.301C538.674 398.301 537.51 397.771 536.693 396.711C535.877 395.651 535.469 394.423 535.469 393.026C535.469 391.587 535.884 390.334 536.715 389.267C537.553 388.192 538.699 387.655 540.152 387.655ZM540.195 388.418C539.83 388.418 539.515 388.558 539.25 388.837C538.992 389.109 538.82 389.653 538.734 390.47C538.656 391.279 538.616 392.407 538.616 393.854C538.616 394.62 538.666 395.336 538.767 396.002C538.845 396.51 539.014 396.897 539.271 397.162C539.529 397.427 539.823 397.56 540.152 397.56C540.475 397.56 540.743 397.47 540.958 397.291C541.237 397.048 541.424 396.707 541.517 396.271C541.66 395.59 541.731 394.215 541.731 392.146C541.731 390.928 541.663 390.094 541.527 389.643C541.391 389.184 541.191 388.851 540.926 388.644C540.74 388.493 540.496 388.418 540.195 388.418ZM549.348 387.666C549.842 387.666 550.261 387.841 550.604 388.192C550.955 388.536 551.131 388.955 551.131 389.449C551.131 389.943 550.955 390.366 550.604 390.717C550.261 391.061 549.842 391.232 549.348 391.232C548.854 391.232 548.431 391.061 548.08 390.717C547.736 390.366 547.564 389.943 547.564 389.449C547.564 388.955 547.736 388.536 548.08 388.192C548.431 387.841 548.854 387.666 549.348 387.666ZM549.337 394.691C549.838 394.691 550.261 394.867 550.604 395.218C550.955 395.569 551.131 395.991 551.131 396.485C551.131 396.979 550.955 397.402 550.604 397.753C550.254 398.097 549.831 398.269 549.337 398.269C548.843 398.269 548.42 398.097 548.069 397.753C547.726 397.402 547.554 396.979 547.554 396.485C547.554 395.991 547.726 395.569 548.069 395.218C548.42 394.867 548.843 394.691 549.337 394.691Z" fill="#FF0000"/>
<path d="M950.609 384.271V390.255H951.028C951.673 390.255 952.199 390.158 952.607 389.965C953.016 389.771 953.359 389.446 953.639 388.987C953.925 388.529 954.111 387.91 954.197 387.129H954.573V394.444H954.197C954.061 393.062 953.689 392.153 953.08 391.716C952.479 391.272 951.795 391.05 951.028 391.05H950.609V395.508C950.609 396.253 950.649 396.718 950.728 396.904C950.813 397.09 950.975 397.255 951.211 397.398C951.454 397.535 951.78 397.603 952.188 397.603H952.672V398H945.056V397.603H945.539C945.962 397.603 946.302 397.527 946.56 397.377C946.746 397.277 946.889 397.105 946.989 396.861C947.068 396.689 947.107 396.238 947.107 395.508V385.926C947.107 385.181 947.068 384.715 946.989 384.529C946.91 384.343 946.749 384.182 946.506 384.046C946.27 383.903 945.947 383.831 945.539 383.831H945.056V383.434H957.345V387.612H956.904C956.804 386.631 956.546 385.904 956.131 385.432C955.723 384.959 955.128 384.626 954.348 384.433C953.918 384.325 953.123 384.271 951.963 384.271H950.609ZM962.92 387.956V390.233C963.586 389.195 964.17 388.507 964.671 388.171C965.172 387.827 965.656 387.655 966.121 387.655C966.522 387.655 966.841 387.781 967.077 388.031C967.321 388.275 967.442 388.622 967.442 389.073C967.442 389.553 967.324 389.925 967.088 390.19C966.859 390.455 966.579 390.588 966.25 390.588C965.87 390.588 965.541 390.466 965.262 390.223C964.982 389.979 964.818 389.843 964.768 389.814C964.696 389.771 964.614 389.75 964.521 389.75C964.313 389.75 964.116 389.829 963.93 389.986C963.636 390.23 963.414 390.577 963.264 391.028C963.035 391.723 962.92 392.489 962.92 393.327V395.637L962.931 396.238C962.931 396.646 962.956 396.908 963.006 397.022C963.092 397.216 963.217 397.359 963.382 397.452C963.554 397.538 963.84 397.592 964.241 397.613V398H958.816V397.613C959.253 397.577 959.547 397.459 959.697 397.259C959.855 397.051 959.934 396.51 959.934 395.637V390.083C959.934 389.51 959.905 389.145 959.848 388.987C959.776 388.787 959.672 388.64 959.536 388.547C959.4 388.454 959.16 388.389 958.816 388.354V387.956H962.92ZM973.265 387.655C974.138 387.655 974.951 387.881 975.703 388.332C976.455 388.783 977.024 389.424 977.411 390.255C977.805 391.086 978.002 391.995 978.002 392.983C978.002 394.409 977.64 395.601 976.917 396.561C976.043 397.721 974.837 398.301 973.297 398.301C971.786 398.301 970.622 397.771 969.806 396.711C968.989 395.651 968.581 394.423 968.581 393.026C968.581 391.587 968.996 390.334 969.827 389.267C970.665 388.192 971.811 387.655 973.265 387.655ZM973.308 388.418C972.942 388.418 972.627 388.558 972.362 388.837C972.104 389.109 971.933 389.653 971.847 390.47C971.768 391.279 971.729 392.407 971.729 393.854C971.729 394.62 971.779 395.336 971.879 396.002C971.958 396.51 972.126 396.897 972.384 397.162C972.642 397.427 972.935 397.56 973.265 397.56C973.587 397.56 973.855 397.47 974.07 397.291C974.35 397.048 974.536 396.707 974.629 396.271C974.772 395.59 974.844 394.215 974.844 392.146C974.844 390.928 974.776 390.094 974.64 389.643C974.504 389.184 974.303 388.851 974.038 388.644C973.852 388.493 973.608 388.418 973.308 388.418ZM983.695 387.956V389.277C984.247 388.676 984.755 388.257 985.221 388.021C985.693 387.777 986.209 387.655 986.768 387.655C987.412 387.655 987.953 387.806 988.39 388.106C988.826 388.407 989.163 388.866 989.399 389.481C989.972 388.837 990.52 388.371 991.043 388.085C991.573 387.799 992.124 387.655 992.697 387.655C993.392 387.655 993.943 387.816 994.352 388.139C994.767 388.454 995.053 388.858 995.211 389.353C995.376 389.84 995.458 390.62 995.458 391.694V395.809C995.458 396.582 995.526 397.062 995.662 397.248C995.805 397.434 996.099 397.556 996.543 397.613V398H991.354V397.613C991.763 397.577 992.063 397.42 992.257 397.141C992.386 396.947 992.45 396.503 992.45 395.809V391.49C992.45 390.595 992.414 390.026 992.343 389.782C992.271 389.539 992.157 389.36 991.999 389.245C991.849 389.123 991.67 389.062 991.462 389.062C991.154 389.062 990.842 389.177 990.527 389.406C990.212 389.628 989.894 389.965 989.571 390.416V395.809C989.571 396.532 989.632 396.987 989.754 397.173C989.919 397.438 990.234 397.585 990.699 397.613V398H985.5V397.613C985.779 397.599 985.998 397.531 986.155 397.409C986.32 397.28 986.427 397.13 986.478 396.958C986.535 396.779 986.563 396.396 986.563 395.809V391.49C986.563 390.581 986.528 390.011 986.456 389.782C986.384 389.553 986.263 389.374 986.091 389.245C985.926 389.116 985.747 389.052 985.554 389.052C985.267 389.052 985.006 389.127 984.77 389.277C984.433 389.499 984.075 389.879 983.695 390.416V395.809C983.695 396.518 983.763 396.987 983.899 397.216C984.043 397.438 984.336 397.57 984.78 397.613V398H979.603V397.613C980.025 397.57 980.326 397.434 980.505 397.205C980.627 397.048 980.688 396.582 980.688 395.809V390.137C980.688 389.378 980.616 388.905 980.473 388.719C980.337 388.533 980.047 388.411 979.603 388.354V387.956H983.695ZM1000.79 387.666C1001.28 387.666 1001.7 387.841 1002.04 388.192C1002.39 388.536 1002.57 388.955 1002.57 389.449C1002.57 389.943 1002.39 390.366 1002.04 390.717C1001.7 391.061 1001.28 391.232 1000.79 391.232C1000.29 391.232 999.869 391.061 999.519 390.717C999.175 390.366 999.003 389.943 999.003 389.449C999.003 388.955 999.175 388.536 999.519 388.192C999.869 387.841 1000.29 387.666 1000.79 387.666ZM1000.78 394.691C1001.28 394.691 1001.7 394.867 1002.04 395.218C1002.39 395.569 1002.57 395.991 1002.57 396.485C1002.57 396.979 1002.39 397.402 1002.04 397.753C1001.69 398.097 1001.27 398.269 1000.78 398.269C1000.28 398.269 999.859 398.097 999.508 397.753C999.164 397.402 998.992 396.979 998.992 396.485C998.992 395.991 999.164 395.569 999.508 395.218C999.859 394.867 1000.28 394.691 1000.78 394.691Z" fill="#FF0000"/>
<rect x="379.5" y="429.5" width="314" height="40" stroke="#FF0000"/>
<rect x="817.5" y="429.5" width="314" height="40" stroke="#FF0000"/>
<path d="M724.825 583.972L725.18 584.047L723.934 588H712.654V587.603H713.202C713.818 587.603 714.258 587.402 714.523 587.001C714.674 586.772 714.749 586.242 714.749 585.411V576.012C714.749 575.102 714.649 574.533 714.448 574.304C714.169 573.989 713.754 573.831 713.202 573.831H712.654V573.434H719.25V573.831C718.477 573.824 717.932 573.896 717.617 574.046C717.309 574.196 717.098 574.386 716.983 574.615C716.869 574.844 716.812 575.392 716.812 576.259V585.411C716.812 586.006 716.869 586.414 716.983 586.636C717.069 586.786 717.202 586.897 717.381 586.969C717.56 587.04 718.118 587.076 719.057 587.076H720.12C721.237 587.076 722.021 586.994 722.473 586.829C722.924 586.664 723.336 586.374 723.708 585.959C724.08 585.536 724.453 584.874 724.825 583.972ZM728.005 581.866C727.998 583.327 728.352 584.473 729.068 585.304C729.785 586.134 730.626 586.55 731.593 586.55C732.237 586.55 732.796 586.374 733.269 586.023C733.748 585.665 734.149 585.057 734.472 584.197L734.805 584.412C734.654 585.393 734.217 586.288 733.494 587.098C732.771 587.9 731.865 588.301 730.776 588.301C729.595 588.301 728.581 587.842 727.736 586.926C726.898 586.002 726.479 584.763 726.479 583.209C726.479 581.526 726.909 580.215 727.769 579.277C728.635 578.332 729.72 577.859 731.023 577.859C732.126 577.859 733.032 578.225 733.741 578.955C734.45 579.678 734.805 580.649 734.805 581.866H728.005ZM728.005 581.243H732.56C732.524 580.613 732.449 580.169 732.334 579.911C732.155 579.51 731.886 579.195 731.528 578.966C731.177 578.737 730.809 578.622 730.422 578.622C729.827 578.622 729.294 578.855 728.821 579.32C728.356 579.779 728.084 580.42 728.005 581.243ZM738.983 574.927V578.16H741.282V578.912H738.983V585.293C738.983 585.93 739.073 586.36 739.252 586.582C739.438 586.804 739.674 586.915 739.961 586.915C740.197 586.915 740.426 586.843 740.648 586.7C740.87 586.55 741.042 586.331 741.164 586.045H741.583C741.332 586.747 740.978 587.277 740.52 587.635C740.061 587.986 739.589 588.161 739.102 588.161C738.772 588.161 738.45 588.072 738.135 587.893C737.82 587.706 737.587 587.445 737.437 587.108C737.286 586.765 737.211 586.238 737.211 585.529V578.912H735.653V578.558C736.047 578.4 736.448 578.135 736.856 577.763C737.272 577.383 737.641 576.936 737.963 576.42C738.128 576.148 738.357 575.65 738.65 574.927H738.983ZM744.118 578.665V578.16C744.856 577.723 745.357 577.315 745.622 576.936C745.808 576.663 745.901 576.338 745.901 575.958C745.901 575.736 745.862 575.571 745.783 575.464C745.697 575.356 745.604 575.303 745.504 575.303C745.425 575.303 745.321 575.328 745.192 575.378C745.006 575.442 744.852 575.475 744.73 575.475C744.444 575.475 744.19 575.367 743.968 575.152C743.746 574.938 743.635 574.669 743.635 574.347C743.635 573.989 743.746 573.709 743.968 573.509C744.269 573.237 744.627 573.101 745.042 573.101C745.522 573.101 745.951 573.305 746.331 573.713C746.718 574.114 746.911 574.615 746.911 575.217C746.911 576.062 746.592 576.832 745.955 577.526C745.533 577.985 744.92 578.364 744.118 578.665ZM755.935 577.87V581.222H755.58C755.308 580.169 754.957 579.453 754.527 579.073C754.105 578.694 753.564 578.504 752.905 578.504C752.404 578.504 751.999 578.636 751.691 578.901C751.383 579.166 751.229 579.46 751.229 579.782C751.229 580.183 751.344 580.527 751.573 580.813C751.795 581.107 752.246 581.419 752.927 581.748L754.495 582.511C755.949 583.22 756.676 584.154 756.676 585.314C756.676 586.21 756.336 586.933 755.655 587.484C754.982 588.029 754.227 588.301 753.389 588.301C752.787 588.301 752.1 588.193 751.326 587.979C751.09 587.907 750.896 587.871 750.746 587.871C750.581 587.871 750.452 587.964 750.359 588.15H750.005V584.638H750.359C750.56 585.64 750.943 586.396 751.509 586.904C752.075 587.413 752.708 587.667 753.41 587.667C753.904 587.667 754.305 587.524 754.613 587.237C754.928 586.944 755.086 586.593 755.086 586.185C755.086 585.69 754.91 585.275 754.56 584.938C754.216 584.602 753.525 584.176 752.486 583.66C751.448 583.145 750.768 582.679 750.445 582.264C750.123 581.855 749.962 581.34 749.962 580.717C749.962 579.908 750.238 579.231 750.789 578.687C751.348 578.142 752.067 577.87 752.948 577.87C753.335 577.87 753.804 577.952 754.355 578.117C754.721 578.225 754.964 578.278 755.086 578.278C755.201 578.278 755.29 578.253 755.354 578.203C755.419 578.153 755.494 578.042 755.58 577.87H755.935ZM766.279 584.412C765.678 584.118 765.216 583.71 764.894 583.188C764.571 582.658 764.41 582.074 764.41 581.437C764.41 580.463 764.775 579.625 765.506 578.923C766.243 578.221 767.185 577.87 768.331 577.87C769.269 577.87 770.082 578.099 770.77 578.558H772.854C773.161 578.558 773.34 578.568 773.391 578.59C773.441 578.604 773.477 578.633 773.498 578.676C773.541 578.74 773.562 578.855 773.562 579.02C773.562 579.206 773.545 579.335 773.509 579.406C773.487 579.442 773.448 579.471 773.391 579.492C773.34 579.514 773.161 579.524 772.854 579.524H771.575C771.976 580.04 772.177 580.699 772.177 581.501C772.177 582.418 771.826 583.202 771.124 583.854C770.422 584.505 769.48 584.831 768.299 584.831C767.812 584.831 767.314 584.759 766.806 584.616C766.491 584.888 766.276 585.128 766.161 585.336C766.054 585.536 766 585.708 766 585.852C766 585.973 766.057 586.091 766.172 586.206C766.294 586.321 766.526 586.403 766.87 586.453C767.071 586.482 767.572 586.507 768.374 586.528C769.849 586.564 770.805 586.614 771.242 586.679C771.908 586.772 772.438 587.019 772.832 587.42C773.233 587.821 773.434 588.315 773.434 588.902C773.434 589.712 773.054 590.471 772.295 591.18C771.178 592.225 769.72 592.748 767.923 592.748C766.541 592.748 765.373 592.437 764.421 591.813C763.884 591.455 763.615 591.083 763.615 590.696C763.615 590.524 763.655 590.353 763.733 590.181C763.855 589.916 764.106 589.547 764.485 589.074C764.535 589.01 764.901 588.623 765.581 587.914C765.209 587.692 764.944 587.495 764.786 587.323C764.636 587.144 764.561 586.944 764.561 586.722C764.561 586.471 764.661 586.177 764.861 585.841C765.069 585.504 765.542 585.028 766.279 584.412ZM768.148 578.386C767.618 578.386 767.174 578.597 766.816 579.02C766.458 579.442 766.279 580.09 766.279 580.964C766.279 582.095 766.523 582.973 767.01 583.596C767.382 584.068 767.855 584.305 768.428 584.305C768.972 584.305 769.42 584.101 769.771 583.692C770.121 583.284 770.297 582.643 770.297 581.77C770.297 580.631 770.05 579.739 769.556 579.095C769.19 578.622 768.721 578.386 768.148 578.386ZM766.172 588C765.835 588.365 765.581 588.705 765.409 589.021C765.237 589.336 765.151 589.626 765.151 589.891C765.151 590.234 765.359 590.535 765.774 590.793C766.491 591.237 767.525 591.459 768.879 591.459C770.168 591.459 771.117 591.23 771.726 590.771C772.341 590.32 772.649 589.837 772.649 589.321C772.649 588.949 772.467 588.684 772.102 588.526C771.729 588.369 770.992 588.276 769.889 588.247C768.277 588.204 767.038 588.122 766.172 588ZM779.46 577.87C780.95 577.87 782.146 578.436 783.048 579.567C783.814 580.534 784.197 581.644 784.197 582.897C784.197 583.778 783.986 584.67 783.563 585.572C783.141 586.475 782.557 587.155 781.812 587.613C781.075 588.072 780.251 588.301 779.342 588.301C777.859 588.301 776.681 587.71 775.808 586.528C775.07 585.533 774.701 584.416 774.701 583.177C774.701 582.274 774.923 581.379 775.367 580.491C775.818 579.596 776.409 578.937 777.14 578.515C777.87 578.085 778.644 577.87 779.46 577.87ZM779.127 578.568C778.747 578.568 778.364 578.683 777.978 578.912C777.598 579.134 777.29 579.528 777.054 580.094C776.817 580.66 776.699 581.386 776.699 582.274C776.699 583.707 776.982 584.942 777.548 585.98C778.121 587.019 778.873 587.538 779.804 587.538C780.498 587.538 781.071 587.252 781.522 586.679C781.974 586.106 782.199 585.121 782.199 583.725C782.199 581.977 781.823 580.602 781.071 579.6C780.563 578.912 779.915 578.568 779.127 578.568ZM794.327 584.144H793.919L792.974 575.442C792.931 575.063 792.909 574.78 792.909 574.594C792.909 574.143 793.027 573.781 793.264 573.509C793.507 573.237 793.797 573.101 794.134 573.101C794.47 573.101 794.753 573.237 794.982 573.509C795.219 573.781 795.337 574.186 795.337 574.723C795.337 574.895 795.323 575.134 795.294 575.442L794.327 584.144ZM794.112 585.927C794.442 585.927 794.721 586.045 794.95 586.281C795.187 586.51 795.305 586.786 795.305 587.108C795.305 587.438 795.187 587.721 794.95 587.957C794.721 588.186 794.442 588.301 794.112 588.301C793.783 588.301 793.5 588.186 793.264 587.957C793.035 587.721 792.92 587.438 792.92 587.108C792.92 586.786 793.035 586.51 793.264 586.281C793.5 586.045 793.783 585.927 794.112 585.927Z" fill="white"/>
</svg>
